<!DOCTYPE svg PUBLIC "-//W3C//DTD SVG 1.1//EN" "http://www.w3.org/Graphics/SVG/1.1/DTD/svg11.dtd">
<!-- Uploaded to: SVG Repo, www.svgrepo.com, Transformed by: SVG Repo Mixer Tools -->
<svg width="800px" height="800px" viewBox="-51.2 -51.2 614.40 614.40" version="1.1" xmlns="http://www.w3.org/2000/svg" xmlns:xlink="http://www.w3.org/1999/xlink" fill="#000000">
<g id="SVGRepo_bgCarrier" stroke-width="0">
<rect x="-51.2" y="-51.2" width="614.40" height="614.40" rx="307.2" fill="#ffffff" strokewidth="0"/>
</g>
<g id="SVGRepo_tracerCarrier" stroke-linecap="round" stroke-linejoin="round"/>
<g id="SVGRepo_iconCarrier"> <title>pan</title> <g id="Page-1" stroke="none" stroke-width="1" fill="none" fill-rule="evenodd"> <g id="drop" fill="#8da5f3" transform="translate(42.666667, 42.666667)"> <path d="M234.666667,256 L234.666667,341.333333 L277.333333,341.333333 L213.333333,426.666667 L149.333333,341.333333 L192,341.333333 L192,256 L234.666667,256 Z M341.333333,149.333333 L426.666667,213.333333 L341.333333,277.333333 L341.333333,234.666667 L256,234.666667 L256,192 L341.333333,192 L341.333333,149.333333 Z M85.3333333,149.333333 L85.3333333,192 L170.666667,192 L170.666667,234.666667 L85.3333333,234.666667 L85.3333333,277.333333 L3.55271368e-14,213.333333 L85.3333333,149.333333 Z M213.333333,3.55271368e-14 L277.333333,85.3333333 L234.666667,85.3333333 L234.666667,170.666667 L192,170.666667 L192,85.3333333 L149.333333,85.3333333 L213.333333,3.55271368e-14 Z" id="Combined-Shape"> </path> </g> </g> </g>
</svg>