<!DOCTYPE svg PUBLIC "-//W3C//DTD SVG 1.1//EN" "http://www.w3.org/Graphics/SVG/1.1/DTD/svg11.dtd">
<!-- Uploaded to: SVG Repo, www.svgrepo.com, Transformed by: SVG Repo Mixer Tools -->
<svg width="800px" height="800px" viewBox="0 0 24 24" fill="none" xmlns="http://www.w3.org/2000/svg">
<g id="SVGRepo_bgCarrier" stroke-width="0"/>
<g id="SVGRepo_tracerCarrier" stroke-linecap="round" stroke-linejoin="round"/>
<g id="SVGRepo_iconCarrier"> <path d="M12 2C6.4919191 2 2 6.4919191 2 12C2 17.51 6.4919191 22 12 22C17.51 22 22 17.51 22 12C22 6.4919191 17.51 2 12 2ZM16 12.75H12.75V16C12.75 16.41 12.41 16.75 12 16.75C11.5919191 16.75 11.25 16.41 11.25 16V12.75H8C7.5919191 12.75 7.25 12.41 7.25 12C7.25 11.5919191 7.5919191 11.25 8 11.25H11.25V8C11.25 7.5919191 11.5919191 7.25 12 7.25C12.41 7.25 12.75 7.5919191 12.75 8V11.25H16C16.41 11.25 16.75 11.5919191 16.75 12C16.75 12.41 16.41 12.75 16 12.75Z" fill="919191"/> </g>
</svg>