<!DOCTYPE svg PUBLIC "-//W3C//DTD SVG 1.1//EN" "http://www.w3.org/Graphics/SVG/1.1/DTD/svg11.dtd">
<!-- Uploaded to: SVG Repo, www.svgrepo.com, Transformed by: SVG Repo Mixer Tools -->
<svg fill="#93a4f1" height="800px" width="800px" version="1.1" id="XMLID_187_" xmlns="http://www.w3.org/2000/svg" xmlns:xlink="http://www.w3.org/1999/xlink" viewBox="-2.4 -2.4 28.80 28.80" xml:space="preserve">
<g id="SVGRepo_bgCarrier" stroke-width="0">
<rect x="-2.4" y="-2.4" width="28.80" height="28.80" rx="14.4" fill="#919191" strokewidth="0"/>
</g>
<g id="SVGRepo_tracerCarrier" stroke-linecap="round" stroke-linejoin="round"/>
<g id="SVGRepo_iconCarrier"> <g id="pan"> <g> <polygon points="12,24 7.5,19.5 8.8,18.1 11,20.3 11,13 3.7,13 5.9,15.2 4.5,16.5 0,12 4.5,7.5 5.9,8.8 3.7,11 11,11 11,3.7 8.8,5.9 7.5,4.5 12,0 16.5,4.5 15.2,5.9 13,3.7 13,11 20.3,11 18.1,8.8 19.5,7.5 24,12 19.5,16.5 18.1,15.2 20.3,13 13,13 13,20.3 15.2,18.1 16.5,19.5 "/> </g> </g> </g>
</svg>